{"title":"The Toybox 2018 720p WEB-DL x264 ESub [MW]","magnet":"magnet:?xt=urn:btih:19a94d5263e977cade2aa5b5b8c5bb222bc62dfe&dn=The+Toybox+2018+720p+WEB-DL+x264+ESub+%5BMW%5D&tr=udp%3A%2F%2Ftracker.leechers-paradise.org%3A6969&tr=udp%3A%2F%2Fzer0day.ch%3A1337&tr=udp%3A%2F%2Fopen.demonii.com%3A1337&tr=udp%3A%2F%2Ftracker.coppersurfer.tk%3A6969&tr=udp%3A%2F%2Fexodus.desync.com%3A6969","uploader":"MFreaky","categoryP":"video","categoryS":"hd___movies","size":"793783121","seeders":"15","leechers":"23","description":" <a href=\"https://pichub.site/image/EkdVj\" rel=\"nofollow\" target=\"_NEW\">https://pichub.site/image/EkdVj</a> <a href=\"\nhttps://pichub.site/image/EkDbh\" rel=\"nofollow\" target=\"_NEW\">\nhttps://pichub.site/image/EkDbh</a> <a href=\"\nhttps://pichub.site/image/EkSo5\" rel=\"nofollow\" target=\"_NEW\">\nhttps://pichub.site/image/EkSo5</a> <a href=\"\nhttps://pichub.site/image/EkRiJ\" rel=\"nofollow\" target=\"_NEW\">\nhttps://pichub.site/image/EkRiJ</a> <a href=\"\nhttps://pichub.site/image/EkaPX\" rel=\"nofollow\" target=\"_NEW\">\nhttps://pichub.site/image/EkaPX</a>\r\n\r\nIMDB <a href=\"\nhttps://www.imdb.com/title/tt6053472/\" rel=\"nofollow\" target=\"_NEW\">\nhttps://www.imdb.com/title/tt6053472/</a>\r\n\r\nVideo\r\nFormat                                   : AVC\r\nFormat/Info                              : Advanced Video Codec\r\nFormat profile                           : High@L4.1\r\nFormat settings                          : CABAC / 4 Ref Frames\r\nFormat settings, CABAC                   : Yes\r\nFormat settings, RefFrames               : 4 frames\r\nCodec ID                                 : V_MPEG4/ISO/AVC\r\nDuration                                 : 1 h 34 min\r\nBit rate                                 : 1 000 kb/s\r\nWidth                                    : 1 280 pixels\r\nHeight                                   : 540 pixels\r\nDisplay aspect ratio                     : 2.40:1\r\nFrame rate mode                          : Constant\r\nFrame rate                               : 23.976 (24000/1001) FPS\r\nColor space                              : YUV\r\nChroma subsampling                       : 4:2:0\r\nBit depth                                : 8 bits\r\nScan type                                : Progressive\r\nBits/(Pixel*Frame)                       : 0.060\r\nStream size                              : 669 MiB (88%)\r\nWriting library                          : x264 core 155 r2901 7d0ff22\r\n\r\nAudio\r\nFormat                                   : AAC\r\nFormat/Info                              : Advanced Audio Codec\r\nFormat profile                           : LC\r\nCodec ID                                 : A_AAC-2\r\nDuration                                 : 1 h 34 min\r\nBit rate                                 : 128 kb/s\r\nChannel(s)                               : 2 channels\r\nChannel positions                        : Front: L R\r\nSampling rate                            : 48.0 kHz\r\nFrame rate                               : 46.875 FPS (1024 SPF)\r\nCompression mode                         : Lossy\r\nStream size                              : 86.7 MiB (11%)\r\nLanguage                                 : English","last_updated":"2018-09-19T12:24:26.757Z","parsed":{"xt":"urn:btih:19a94d5263e977cade2aa5b5b8c5bb222bc62dfe","dn":"The Toybox 2018 720p WEB-DL x264 ESub [MW]","tr":["udp://exodus.desync.com:6969","udp://open.demonii.com:1337","udp://tracker.coppersurfer.tk:6969","udp://tracker.leechers-paradise.org:6969","udp://zer0day.ch:1337"],"infoHash":"19a94d5263e977cade2aa5b5b8c5bb222bc62dfe","infoHashBuffer":{"type":"Buffer","data":[25,169,77,82,99,233,119,202,222,42,165,181,184,197,187,34,43,198,45,254]},"name":"The Toybox 2018 720p WEB-DL x264 ESub [MW]","announce":["udp://exodus.desync.com:6969","udp://open.demonii.com:1337","udp://tracker.coppersurfer.tk:6969","udp://tracker.leechers-paradise.org:6969","udp://zer0day.ch:1337"],"urlList":[]}}